<svg xmlns="http://www.w3.org/2000/svg" width="208" height="38"><g filter="url(#a)"><g clip-path="url(#b)"><path d="M94.388 26.55c-1.354-2.388-.433-6.133 2.369-8.935 3.181-3.18 7.58-3.94 9.826-1.694a.079.079 0 00.008.01c-.449 1.307-1.881 4.09-6.171 5.594-3.93 1.378-5.447 3.57-6.032 5.025zm10.872-6.96c-1.026 1.027-2.484 2.035-4.55 2.76-4.192 1.47-5.364 3.877-5.69 5.043l.043.047c2.245 2.246 6.645 1.487 9.825-1.694 2.831-2.83 3.741-6.623 2.326-9.008a9.131 9.131 0 01-1.954 2.853zM96.585 9.246c4.529.397 6.979-1.549 7.927-2.555l-.004-.012c-1.121-2.97-5.442-4.092-9.65-2.504-3.707 1.399-6.09 4.432-5.84 7.166 1.133-1.085 3.417-2.458 7.567-2.095zm2.332 5.688c3.745-1.412 6.137-4.494 5.83-7.25a9.142 9.142 0 01-2.955 1.795c-1.358.512-3.102.83-5.283.64-4.426-.389-6.485 1.322-7.264 2.25.008.02.014.041.02.06 1.122 2.972 5.443 4.094 9.652 2.505zm13.108-6.195c2.717-3.646 2.348-6.753 1.99-8.088l-.012-.003c-3.117-.607-6.341 2.48-7.201 6.896-.757 3.89.573 7.51 3.03 8.734-.327-1.534-.295-4.199 2.193-7.54zM114.984.97c.161.85.25 2.041-.026 3.458-.277 1.425-.923 3.076-2.231 4.831-2.655 3.562-2.281 6.213-1.9 7.363l.062.014c3.117.607 6.341-2.48 7.201-6.896.765-3.93-.601-7.584-3.106-8.77z"/></g></g><g filter="url(#c)"><path d="M4 14.5h60"/></g><g filter="url(#d)"><path d="M144 14.5h60"/></g><defs><filter id="a" width="37.302" height="37.302" x="85" y="0" color-interpolation-filters="sRGB" filterUnits="userSpaceOnUse"><feFlood flood-opacity="0" result="BackgroundImageFix"/><feColorMatrix in="SourceAlpha" result="hardAlpha" values="0 0 0 0 0 0 0 0 0 0 0 0 0 0 0 0 0 0 127 0"/><feOffset dy="4"/><feGaussianBlur stdDeviation="2"/><feColorMatrix values="0 0 0 0 0 0 0 0 0 0 0 0 0 0 0 0 0 0 0.25 0"/><feBlend in2="BackgroundImageFix" result="effect1_dropShadow_4_78"/><feBlend in="SourceGraphic" in2="effect1_dropShadow_4_78" result="shape"/></filter><filter id="c" width="68" height="9" x="0" y="12" color-interpolation-filters="sRGB" filterUnits="userSpaceOnUse"><feFlood flood-opacity="0" result="BackgroundImageFix"/><feColorMatrix in="SourceAlpha" result="hardAlpha" values="0 0 0 0 0 0 0 0 0 0 0 0 0 0 0 0 0 0 127 0"/><feOffset dy="2"/><feGaussianBlur stdDeviation="2"/><feColorMatrix values="0 0 0 0 0 0 0 0 0 0 0 0 0 0 0 0 0 0 0.25 0"/><feBlend in2="BackgroundImageFix" result="effect1_dropShadow_4_78"/><feBlend in="SourceGraphic" in2="effect1_dropShadow_4_78" result="shape"/></filter><filter id="d" width="68" height="9" x="140" y="12" color-interpolation-filters="sRGB" filterUnits="userSpaceOnUse"><feFlood flood-opacity="0" result="BackgroundImageFix"/><feColorMatrix in="SourceAlpha" result="hardAlpha" values="0 0 0 0 0 0 0 0 0 0 0 0 0 0 0 0 0 0 127 0"/><feOffset dy="2"/><feGaussianBlur stdDeviation="2"/><feColorMatrix values="0 0 0 0 0 0 0 0 0 0 0 0 0 0 0 0 0 0 0.25 0"/><feBlend in2="BackgroundImageFix" result="effect1_dropShadow_4_78"/><feBlend in="SourceGraphic" in2="effect1_dropShadow_4_78" result="shape"/></filter><clipPath id="b"><path d="M89 0h29.302v29.302H89z"/></clipPath></defs></svg>